<svg id="Layer_1" data-name="Layer 1" xmlns="http://www.w3.org/2000/svg" xmlns:xlink="http://www.w3.org/1999/xlink" viewBox="0 0 1168.78 1163.48"><defs><style>.cls-1,.cls-56{fill:#fff;}.cls-2{fill:#8884d8;}.cls-3{font-size:72px;}.cls-10,.cls-17,.cls-3,.cls-35,.cls-42,.cls-53{font-family:MyriadPro-Regular, Myriad Pro;}.cls-4{letter-spacing:-0.02em;}.cls-5{letter-spacing:-0.01em;}.cls-6{letter-spacing:0.01em;}.cls-7{letter-spacing:0em;}.cls-8{letter-spacing:0.01em;}.cls-9{letter-spacing:0em;}.cls-10{font-size:42.09px;}.cls-11{letter-spacing:-0.01em;}.cls-12{letter-spacing:-0.02em;}.cls-13{letter-spacing:0.01em;}.cls-14{letter-spacing:0em;}.cls-15{letter-spacing:-0.01em;}.cls-16{letter-spacing:0.02em;}.cls-17{font-size:14.84px;}.cls-18{letter-spacing:-0.01em;}.cls-19{letter-spacing:-0.01em;}.cls-20{letter-spacing:-0.01em;}.cls-21{letter-spacing:0em;}.cls-22{letter-spacing:-0.03em;}.cls-23{letter-spacing:0em;}.cls-24{letter-spacing:-0.01em;}.cls-25{letter-spacing:0.01em;}.cls-26{letter-spacing:-0.01em;}.cls-27{letter-spacing:-0.01em;}.cls-28{letter-spacing:0em;}.cls-29{letter-spacing:0em;}.cls-30{letter-spacing:0em;}.cls-31{letter-spacing:-0.01em;}.cls-32{letter-spacing:0em;}.cls-33{letter-spacing:-0.03em;}.cls-34{letter-spacing:-0.01em;}.cls-35,.cls-42{font-size:14.73px;}.cls-36{letter-spacing:0.02em;}.cls-37{letter-spacing:0em;}.cls-38{letter-spacing:-0.01em;}.cls-39{letter-spacing:0em;}.cls-40{letter-spacing:0em;}.cls-41{fill:none;}.cls-41,.cls-56{stroke:#000;stroke-miterlimit:10;}.cls-42{fill:#48e200;}.cls-43{letter-spacing:-0.01em;}.cls-44{letter-spacing:-0.01em;}.cls-45{letter-spacing:0em;}.cls-46{letter-spacing:-0.01em;}.cls-47,.cls-53{font-size:11.22px;}.cls-48{letter-spacing:-0.01em;}.cls-49{letter-spacing:-0.01em;}.cls-50{letter-spacing:0.03em;}.cls-51{letter-spacing:-0.01em;}.cls-52{letter-spacing:-0.01em;}.cls-54{letter-spacing:0em;}.cls-55{letter-spacing:0em;}.cls-57{letter-spacing:-0.04em;}.cls-58{letter-spacing:-0.01em;}.cls-59{letter-spacing:-0.06em;}</style></defs><rect class="cls-1" x="257.97" y="620.98" width="320.31" height="60.74"/><path d="M608,625v59.74H288.69V625H608m1-1H287.69v61.74H609V624Z" transform="translate(-30.22 -3.52)"/><rect class="cls-1" x="568.97" y="1091.98" width="320.31" height="60.74"/><path d="M919,1096v59.74H599.69V1096H919m1-1H598.69v61.74H920V1095Z" transform="translate(-30.22 -3.52)"/><rect class="cls-1" x="847.97" y="603.98" width="320.31" height="60.74"/><path d="M1198,608v59.74H878.69V608H1198m1-1H877.69v61.74H1199V607Z" transform="translate(-30.22 -3.52)"/><rect class="cls-2" x="0.5" y="898.79" width="188.87" height="126.68"/><path d="M219.09,902.81V1028.5H31.22V902.81H219.09m1-1H30.22V1029.5H220.09V901.81Z" transform="translate(-30.22 -3.52)"/><rect class="cls-2" x="133.79" y="1100.14" width="188.86" height="62.84"/><path d="M352.38,1104.16V1166H164.52v-61.84H352.38m1-1H163.52V1167H353.38v-63.84Z" transform="translate(-30.22 -3.52)"/><rect class="cls-2" x="250.25" y="898.09" width="188.87" height="62.84"/><path d="M468.84,902.11V964H281V902.11H468.84m1-1H280V965H469.84V901.11Z" transform="translate(-30.22 -3.52)"/><rect class="cls-2" x="453" y="898.09" width="188.87" height="62.84"/><path d="M671.59,902.11V964H483.72V902.11H671.59m1-1H482.72V965H672.59V901.11Z" transform="translate(-30.22 -3.52)"/><text class="cls-3" transform="translate(393.19 60.26)"><tspan class="cls-4">P</tspan><tspan class="cls-5" x="37.15" y="0">r</tspan><tspan x="59.98" y="0">oje</tspan><tspan class="cls-6" x="153.07" y="0">c</tspan><tspan x="186.26" y="0">t </tspan><tspan class="cls-7" x="225.36" y="0">S</tspan><tspan x="260.64" y="0">tru</tspan><tspan class="cls-8" x="347.68" y="0">c</tspan><tspan x="380.88" y="0">tu</tspan><tspan class="cls-5" x="444.38" y="0">r</tspan><tspan class="cls-9" x="467.2" y="0">e</tspan></text><text class="cls-10" transform="translate(294.68 664.99)">Dashboa<tspan class="cls-11" x="155.7" y="0">r</tspan><tspan x="169.04" y="0">d</tspan></text><text class="cls-10" transform="translate(679.47 1131.99)"><tspan class="cls-12">P</tspan><tspan class="cls-11" x="21.72" y="0">r</tspan><tspan x="35.06" y="0">ofile</tspan></text><text class="cls-10" transform="translate(958.17 650.99)"><tspan class="cls-13">H</tspan><tspan class="cls-14" x="27.87" y="0">is</tspan><tspan class="cls-15" x="54.38" y="0">t</tspan><tspan x="68.06" y="0">o</tspan><tspan class="cls-16" x="91.17" y="0">r</tspan><tspan x="105.99" y="0">y</tspan></text><text class="cls-10" transform="translate(695.97 349.99)">API</text><text class="cls-17" transform="translate(27.79 923.53)">Jumbot<tspan class="cls-18" x="47.56" y="0">r</tspan><tspan x="52.26" y="0">on </tspan><tspan class="cls-19" x="71.8" y="0">(</tspan><tspan class="cls-20" x="75.84" y="0">C</tspan><tspan class="cls-21" x="84.34" y="0">a</tspan><tspan class="cls-18" x="91.5" y="0">r</tspan><tspan x="96.2" y="0">ousel)</tspan></text><text class="cls-17" transform="matrix(0.99, 0, 0, 1, 152.9, 1131.89)"><tspan class="cls-22">F</tspan><tspan x="6.77" y="0">e</tspan><tspan class="cls-23" x="14.21" y="0">a</tspan><tspan x="21.3" y="0">tu</tspan><tspan class="cls-24" x="34.39" y="0">r</tspan><tspan x="39.1" y="0">ed </tspan><tspan class="cls-25" x="58.05" y="0">I</tspan><tspan x="61.75" y="0">n</tspan><tspan class="cls-26" x="69.99" y="0">f</tspan><tspan x="74.13" y="0">o </tspan><tspan class="cls-27" x="85.43" y="0">C</tspan><tspan class="cls-28" x="93.87" y="0">ompone</tspan><tspan class="cls-29" x="146.67" y="0">n</tspan><tspan x="154.85" y="0">t</tspan></text><text class="cls-17" transform="matrix(0.99, 0, 0, 1, 280.27, 929.84)"><tspan class="cls-30">S</tspan><tspan class="cls-31" x="7.36" y="0">a</tspan><tspan x="14.4" y="0">vings </tspan><tspan class="cls-27" x="50.57" y="0">C</tspan><tspan class="cls-28" x="59.02" y="0">ompone</tspan><tspan class="cls-23" x="111.82" y="0">n</tspan><tspan class="cls-32" x="120" y="0">t</tspan></text><text class="cls-17" transform="matrix(0.99, 0, 0, 1, 477.97, 933.35)"><tspan class="cls-33">F</tspan><tspan x="6.84" y="0">i</tspan><tspan class="cls-34" x="10.32" y="0">x</tspan><tspan x="16.97" y="0">ed </tspan><tspan class="cls-27" x="35.92" y="0">C</tspan><tspan x="44.37" y="0">ost </tspan><tspan class="cls-27" x="66.46" y="0">C</tspan><tspan class="cls-28" x="74.9" y="0">ompone</tspan><tspan class="cls-23" x="127.7" y="0">n</tspan><tspan class="cls-32" x="135.88" y="0">t</tspan></text><text class="cls-35" transform="translate(64.67 954.21)"><tspan xml:space="preserve"> Bar Cha</tspan><tspan class="cls-36" x="49.97" y="0">r</tspan><tspan x="55.14" y="0">t</tspan></text><text class="cls-35" transform="translate(63.2 972.45)">Line Cha<tspan class="cls-36" x="52.9" y="0">r</tspan><tspan x="58.07" y="0">t</tspan></text><text class="cls-35" transform="translate(32.73 997.7)">Ho<tspan class="cls-37" x="17.69" y="0">r</tspan><tspan x="22.57" y="0">i</tspan><tspan class="cls-38" x="26.02" y="0">z</tspan><tspan class="cls-39" x="32.22" y="0">o</tspan><tspan class="cls-40" x="40.31" y="0">n</tspan><tspan x="48.43" y="0">tal Bar Cha</tspan><tspan class="cls-36" x="113.85" y="0">r</tspan><tspan x="119.02" y="0">t</tspan></text><polyline class="cls-41" points="423.19 682.22 423.19 767.8 104.53 767.8 104.53 898.29"/><line class="cls-41" x1="223.44" y1="767.45" x2="223.44" y2="1099.64"/><polyline class="cls-41" points="390.76 682.22 390.76 767.8 536.77 767.98"/><line class="cls-41" x1="536.34" y1="767.8" x2="536.34" y2="898.29"/><line class="cls-41" x1="344.77" y1="767.8" x2="344.77" y2="897.94"/><image width="512" height="512" transform="translate(497.4 624.69) scale(0.1)" xlink:href="../../dashboard.png"/><text class="cls-42" transform="translate(620.08 814.94)">Axio<tspan class="cls-43" x="27.37" y="0">s</tspan><tspan x="33.04" y="0">.post </tspan><tspan class="cls-44" x="66.4" y="0">f</tspan><tspan x="70.51" y="0">or upd</tspan><tspan class="cls-45" x="111.35" y="0">a</tspan><tspan x="118.39" y="0">ting in</tspan><tspan class="cls-44" x="157.87" y="0">f</tspan><tspan x="161.98" y="0">o</tspan><tspan class="cls-37" x="170.07" y="0">r</tspan><tspan x="174.94" y="0">m</tspan><tspan class="cls-45" x="187.23" y="0">a</tspan><tspan x="194.27" y="0">tion</tspan></text><text class="cls-42" transform="translate(970.58 541.04)">Axio<tspan class="cls-43" x="27.37" y="0">s</tspan><tspan x="33.04" y="0">.get call </tspan><tspan class="cls-46" x="83.49" y="0">t</tspan><tspan x="88.28" y="0">o API </tspan><tspan class="cls-47"><tspan x="-60.79" y="13.47">(</tspan><tspan class="cls-48" x="-57.6" y="13.47">U</tspan><tspan x="-50.41" y="13.47">ser ID f</tspan><tspan class="cls-49" x="-18.47" y="13.47">r</tspan><tspan x="-14.91" y="13.47">om J</tspan><tspan class="cls-50" x="7.14" y="13.47">W</tspan><tspan x="17.01" y="13.47">T </tspan><tspan class="cls-48" x="24.97" y="13.47">t</tspan><tspan x="28.62" y="13.47">oken and s</tspan><tspan class="cls-51" x="79.07" y="13.47">t</tspan><tspan x="82.72" y="13.47">o</tspan><tspan class="cls-49" x="88.88" y="13.47">r</tspan><tspan x="92.44" y="13.47">ed in local s</tspan><tspan class="cls-48" x="146.74" y="13.47">t</tspan><tspan x="150.38" y="13.47">o</tspan><tspan class="cls-52" x="156.55" y="13.47">r</tspan><tspan x="160.16" y="13.47">age)</tspan></tspan></text><text class="cls-42" transform="translate(379.58 548.04)">Axio<tspan class="cls-43" x="27.37" y="0">s</tspan><tspan x="33.04" y="0">.get call </tspan><tspan class="cls-46" x="83.49" y="0">t</tspan><tspan x="88.28" y="0">o API </tspan><tspan class="cls-47"><tspan x="-60.79" y="13.47">(</tspan><tspan class="cls-48" x="-57.6" y="13.47">U</tspan><tspan x="-50.41" y="13.47">ser ID f</tspan><tspan class="cls-49" x="-18.47" y="13.47">r</tspan><tspan x="-14.91" y="13.47">om J</tspan><tspan class="cls-50" x="7.14" y="13.47">W</tspan><tspan x="17.01" y="13.47">T </tspan><tspan class="cls-48" x="24.97" y="13.47">t</tspan><tspan x="28.62" y="13.47">oken and s</tspan><tspan class="cls-51" x="79.07" y="13.47">t</tspan><tspan x="82.72" y="13.47">o</tspan><tspan class="cls-49" x="88.88" y="13.47">r</tspan><tspan x="92.44" y="13.47">ed in local s</tspan><tspan class="cls-48" x="146.74" y="13.47">t</tspan><tspan x="150.38" y="13.47">o</tspan><tspan class="cls-52" x="156.55" y="13.47">r</tspan><tspan x="160.16" y="13.47">age)</tspan></tspan></text><text class="cls-53" transform="translate(395.46 713.27)"><tspan class="cls-48">U</tspan><tspan x="7.19" y="0">ser </tspan><tspan x="-0.52" y="13.47">D</tspan><tspan class="cls-54" x="6.96" y="13.47">a</tspan><tspan x="12.32" y="13.47">ta </tspan></text><text class="cls-53" transform="translate(1001.46 693.27)"><tspan class="cls-48">U</tspan><tspan x="7.19" y="0">ser </tspan><tspan x="-0.52" y="13.47">D</tspan><tspan class="cls-54" x="6.96" y="13.47">a</tspan><tspan x="12.32" y="13.47">ta </tspan></text><text class="cls-53" transform="translate(328.99 718.95)">P<tspan class="cls-55" x="5.97" y="0">R</tspan><tspan x="12.04" y="0">OPS</tspan></text><line class="cls-56" x1="362" y1="714.49" x2="390.76" y2="714.49"/><text class="cls-53" transform="translate(931.99 704.95)">P<tspan class="cls-55" x="5.97" y="0">R</tspan><tspan x="12.04" y="0">OPS</tspan></text><line class="cls-56" x1="965" y1="700.49" x2="993.76" y2="700.49"/><line class="cls-56" x1="406.23" y1="575.51" x2="406.23" y2="620.41"/><line class="cls-56" x1="503.26" y1="535.03" x2="686.28" y2="399.98"/><circle class="cls-41" cx="724.78" cy="333.48" r="75.5"/><line class="cls-56" x1="962.28" y1="537.98" x2="768.65" y2="395.02"/><text class="cls-10" transform="translate(699.07 185.41)">DB</text><line class="cls-56" x1="1008.28" y1="567.48" x2="1008.28" y2="603.48"/><polygon class="cls-41" points="725.2 95.58 651.13 203.98 799.27 203.98 725.2 95.58"/><line class="cls-56" x1="724.78" y1="204.48" x2="724.78" y2="257.48"/><rect class="cls-41" x="993.28" y="664.98" width="37" height="75"/><path class="cls-41" d="M1042,743.5" transform="translate(-30.22 -3.52)"/><line class="cls-41" x1="1012.28" y1="739.98" x2="1012.28" y2="897.98"/><rect class="cls-2" x="923" y="898.09" width="188.87" height="62.84"/><path d="M1141.59,902.11V964H953.72V902.11h187.87m1-1H952.72V965h189.87V901.11Z" transform="translate(-30.22 -3.52)"/><text class="cls-17" transform="matrix(0.99, 0, 0, 1, 965.88, 933.35)">One<tspan class="cls-57" x="25.9" y="0"> </tspan><tspan class="cls-58" x="28.44" y="0">T</tspan><tspan x="35.64" y="0">ime</tspan><tspan class="cls-57" x="58.93" y="0"> </tspan><tspan class="cls-59" x="61.47" y="0">T</tspan><tspan class="cls-28" x="67.9" y="0">able</tspan></text><polyline class="cls-41" points="642.37 933.36 724.27 933.36 724.27 408.98"/><line class="cls-41" x1="725.28" y1="933.48" x2="725.28" y2="1090.48"/></svg>