<svg xmlns="http://www.w3.org/2000/svg" xmlns:xlink="http://www.w3.org/1999/xlink" viewBox="0 0 1350 1391"><defs><style>.cls-1,.cls-57{fill:#fff;}.cls-2{fill:#8884d8;}.cls-3{font-size:72px;}.cls-10,.cls-17,.cls-3,.cls-36,.cls-43,.cls-54{font-family:MyriadPro-Regular, Myriad Pro;}.cls-4{letter-spacing:-0.02em;}.cls-5{letter-spacing:-0.01em;}.cls-6{letter-spacing:0.01em;}.cls-7{letter-spacing:0em;}.cls-8{letter-spacing:0.01em;}.cls-9{letter-spacing:0em;}.cls-10{font-size:42.09px;}.cls-11{letter-spacing:-0.01em;}.cls-12{letter-spacing:-0.02em;}.cls-13{letter-spacing:0.01em;}.cls-14{letter-spacing:0em;}.cls-15{letter-spacing:-0.01em;}.cls-16{letter-spacing:0.02em;}.cls-17{font-size:14.84px;}.cls-18{letter-spacing:-0.01em;}.cls-19{letter-spacing:-0.01em;}.cls-20{letter-spacing:-0.01em;}.cls-21{letter-spacing:0em;}.cls-22{letter-spacing:-0.03em;}.cls-23{letter-spacing:0em;}.cls-24{letter-spacing:0em;}.cls-25{letter-spacing:-0.01em;}.cls-26{letter-spacing:0.01em;}.cls-27{letter-spacing:0em;}.cls-28{letter-spacing:-0.01em;}.cls-29{letter-spacing:-0.01em;}.cls-30{letter-spacing:0em;}.cls-31{letter-spacing:0em;}.cls-32{letter-spacing:-0.01em;}.cls-33{letter-spacing:-0.03em;}.cls-34{letter-spacing:-0.01em;}.cls-35{letter-spacing:-0.01em;}.cls-36,.cls-43{font-size:14.73px;}.cls-37{letter-spacing:0.02em;}.cls-38{letter-spacing:0em;}.cls-39{letter-spacing:-0.01em;}.cls-40{letter-spacing:0em;}.cls-41{letter-spacing:0em;}.cls-42{fill:none;}.cls-42,.cls-57{stroke:#000;stroke-miterlimit:10;}.cls-43{fill:#48e200;}.cls-44{letter-spacing:-0.01em;}.cls-45{letter-spacing:-0.01em;}.cls-46{letter-spacing:0em;}.cls-47{letter-spacing:-0.01em;}.cls-48,.cls-54{font-size:11.22px;}.cls-49{letter-spacing:-0.01em;}.cls-50{letter-spacing:-0.01em;}.cls-51{letter-spacing:0.03em;}.cls-52{letter-spacing:-0.01em;}.cls-53{letter-spacing:-0.01em;}.cls-55{letter-spacing:0em;}.cls-56{letter-spacing:0em;}.cls-58{letter-spacing:-0.04em;}.cls-59{letter-spacing:-0.01em;}.cls-60{letter-spacing:-0.04em;}.cls-61{letter-spacing:-0.06em;}</style></defs><g id="Layer_2" data-name="Layer 2"><rect class="cls-1" x="0.5" y="0.5" width="1349" height="1390"/><path d="M1349-19V1370H1V-19H1349m1-1H0V1371H1350V-20Z" transform="translate(0 20)"/></g><g id="Layer_1" data-name="Layer 1"><rect class="cls-1" x="288.19" y="644.5" width="320.31" height="60.74"/><path d="M608,625v59.74H288.69V625H608m1-1H287.69v61.74H609V624Z" transform="translate(0 20)"/><rect class="cls-1" x="599.19" y="1115.5" width="320.31" height="60.74"/><path d="M919,1096v59.74H599.69V1096H919m1-1H598.69v61.74H920V1095Z" transform="translate(0 20)"/><rect class="cls-1" x="878.19" y="627.5" width="320.31" height="60.74"/><path d="M1198,608v59.74H878.69V608H1198m1-1H877.69v61.74H1199V607Z" transform="translate(0 20)"/><rect class="cls-1" x="30.72" y="922.31" width="188.87" height="126.68"/><path d="M219.09,902.81V1028.5H31.22V902.81H219.09m1-1H30.22V1029.5H220.09V901.81Z" transform="translate(0 20)"/><rect class="cls-2" x="164.02" y="1123.66" width="188.86" height="62.84"/><path d="M352.38,1104.16V1166H164.52v-61.84H352.38m1-1H163.52V1167H353.38v-63.84Z" transform="translate(0 20)"/><rect class="cls-2" x="280.48" y="921.61" width="188.87" height="62.84"/><path d="M468.84,902.11V964H281V902.11H468.84m1-1H280V965H469.84V901.11Z" transform="translate(0 20)"/><rect class="cls-2" x="483.22" y="921.61" width="188.87" height="62.84"/><path d="M671.59,902.11V964H483.72V902.11H671.59m1-1H482.72V965H672.59V901.11Z" transform="translate(0 20)"/><text class="cls-3" transform="translate(423.42 83.79)"><tspan class="cls-4">P</tspan><tspan class="cls-5" x="37.15" y="0">r</tspan><tspan x="59.98" y="0">oje</tspan><tspan class="cls-6" x="153.07" y="0">c</tspan><tspan x="186.26" y="0">t </tspan><tspan class="cls-7" x="225.36" y="0">S</tspan><tspan x="260.64" y="0">tru</tspan><tspan class="cls-8" x="347.68" y="0">c</tspan><tspan x="380.88" y="0">tu</tspan><tspan class="cls-5" x="444.38" y="0">r</tspan><tspan class="cls-9" x="467.2" y="0">e</tspan></text><text class="cls-10" transform="translate(324.91 688.51)">Dashboa<tspan class="cls-11" x="155.7" y="0">r</tspan><tspan x="169.04" y="0">d</tspan></text><text class="cls-10" transform="translate(709.7 1155.51)"><tspan class="cls-12">P</tspan><tspan class="cls-11" x="21.72" y="0">r</tspan><tspan x="35.06" y="0">ofile</tspan></text><text class="cls-10" transform="translate(988.39 674.51)"><tspan class="cls-13">H</tspan><tspan class="cls-14" x="27.87" y="0">is</tspan><tspan class="cls-15" x="54.38" y="0">t</tspan><tspan x="68.06" y="0">o</tspan><tspan class="cls-16" x="91.17" y="0">r</tspan><tspan x="105.99" y="0">y</tspan></text><text class="cls-10" transform="translate(726.19 373.51)">API</text><text class="cls-17" transform="translate(58.02 947.05)">Jumbot<tspan class="cls-18" x="47.56" y="0">r</tspan><tspan x="52.26" y="0">on </tspan><tspan class="cls-19" x="71.8" y="0">(</tspan><tspan class="cls-20" x="75.84" y="0">C</tspan><tspan class="cls-21" x="84.34" y="0">a</tspan><tspan class="cls-18" x="91.5" y="0">r</tspan><tspan x="96.2" y="0">ousel)</tspan></text><text class="cls-17" transform="translate(183.1 1155.41) rotate(0.01) scale(0.99 1)"><tspan class="cls-22">F</tspan><tspan x="6.77" y="0">e</tspan><tspan class="cls-23" x="14.21" y="0">a</tspan><tspan class="cls-24" x="21.3" y="0">tu</tspan><tspan class="cls-25" x="34.39" y="0">r</tspan><tspan x="39.1" y="0">ed </tspan><tspan class="cls-26" x="58.05" y="0">I</tspan><tspan class="cls-27" x="61.75" y="0">n</tspan><tspan class="cls-28" x="69.99" y="0">f</tspan><tspan x="74.13" y="0">o </tspan><tspan class="cls-29" x="85.42" y="0">C</tspan><tspan x="93.87" y="0">ompone</tspan><tspan class="cls-30" x="146.67" y="0">n</tspan><tspan x="154.85" y="0">t</tspan></text><text class="cls-17" transform="translate(310.47 953.37) rotate(0.01) scale(0.99 1)"><tspan class="cls-31">S</tspan><tspan class="cls-32" x="7.36" y="0">a</tspan><tspan class="cls-27" x="14.4" y="0">vings </tspan><tspan class="cls-29" x="50.57" y="0">C</tspan><tspan x="59.02" y="0">ompone</tspan><tspan class="cls-30" x="111.82" y="0">n</tspan><tspan x="120" y="0">t</tspan></text><text class="cls-17" transform="translate(508.17 956.88) rotate(0.01) scale(0.99 1)"><tspan class="cls-33">F</tspan><tspan x="6.84" y="0">i</tspan><tspan class="cls-34" x="10.32" y="0">x</tspan><tspan class="cls-27" x="16.97" y="0">ed </tspan><tspan class="cls-35" x="35.92" y="0">C</tspan><tspan x="44.37" y="0">ost </tspan><tspan class="cls-29" x="66.45" y="0">C</tspan><tspan x="74.9" y="0">ompone</tspan><tspan class="cls-23" x="127.7" y="0">n</tspan><tspan class="cls-24" x="135.88" y="0">t</tspan></text><text class="cls-36" transform="translate(94.89 977.73)"><tspan xml:space="preserve"> Bar Cha</tspan><tspan class="cls-37" x="49.97" y="0">r</tspan><tspan x="55.14" y="0">t</tspan></text><text class="cls-36" transform="translate(93.42 995.97)">Line Cha<tspan class="cls-37" x="52.9" y="0">r</tspan><tspan x="58.07" y="0">t</tspan></text><text class="cls-36" transform="translate(62.95 1021.23)">Ho<tspan class="cls-38" x="17.69" y="0">r</tspan><tspan x="22.57" y="0">i</tspan><tspan class="cls-39" x="26.02" y="0">z</tspan><tspan class="cls-40" x="32.22" y="0">o</tspan><tspan class="cls-41" x="40.31" y="0">n</tspan><tspan x="48.43" y="0">tal Bar Cha</tspan><tspan class="cls-37" x="113.85" y="0">r</tspan><tspan x="119.02" y="0">t</tspan></text><polyline class="cls-42" points="453.42 705.74 453.42 791.33 134.76 791.33 134.76 921.81"/><line class="cls-42" x1="253.67" y1="790.97" x2="253.67" y2="1123.16"/><polyline class="cls-42" points="420.99 705.74 420.99 791.33 567 791.5"/><line class="cls-42" x1="566.56" y1="791.33" x2="566.56" y2="921.81"/><line class="cls-42" x1="375" y1="791.33" x2="375" y2="921.46"/><image width="512" height="512" transform="translate(527.62 648.21) scale(0.1)" xlink:href="../../../../../../../dashboard.png"/><text class="cls-43" transform="translate(650.31 838.46)">Axio<tspan class="cls-44" x="27.37" y="0">s</tspan><tspan x="33.04" y="0">.post </tspan><tspan class="cls-45" x="66.4" y="0">f</tspan><tspan x="70.51" y="0">or upd</tspan><tspan class="cls-46" x="111.35" y="0">a</tspan><tspan x="118.39" y="0">ting in</tspan><tspan class="cls-45" x="157.87" y="0">f</tspan><tspan x="161.98" y="0">o</tspan><tspan class="cls-38" x="170.07" y="0">r</tspan><tspan x="174.94" y="0">m</tspan><tspan class="cls-46" x="187.23" y="0">a</tspan><tspan x="194.27" y="0">tion</tspan></text><text class="cls-43" transform="translate(1000.81 564.56)">Axio<tspan class="cls-44" x="27.37" y="0">s</tspan><tspan x="33.04" y="0">.get call </tspan><tspan class="cls-47" x="83.49" y="0">t</tspan><tspan x="88.28" y="0">o API </tspan><tspan class="cls-48"><tspan x="-60.79" y="13.47">(</tspan><tspan class="cls-49" x="-57.6" y="13.47">U</tspan><tspan x="-50.41" y="13.47">ser ID f</tspan><tspan class="cls-50" x="-18.47" y="13.47">r</tspan><tspan x="-14.91" y="13.47">om J</tspan><tspan class="cls-51" x="7.14" y="13.47">W</tspan><tspan x="17.01" y="13.47">T </tspan><tspan class="cls-49" x="24.97" y="13.47">t</tspan><tspan x="28.62" y="13.47">oken and s</tspan><tspan class="cls-52" x="79.07" y="13.47">t</tspan><tspan x="82.72" y="13.47">o</tspan><tspan class="cls-50" x="88.88" y="13.47">r</tspan><tspan x="92.44" y="13.47">ed in local s</tspan><tspan class="cls-49" x="146.74" y="13.47">t</tspan><tspan x="150.38" y="13.47">o</tspan><tspan class="cls-53" x="156.55" y="13.47">r</tspan><tspan x="160.16" y="13.47">age)</tspan></tspan></text><text class="cls-43" transform="translate(409.81 571.56)">Axio<tspan class="cls-44" x="27.37" y="0">s</tspan><tspan x="33.04" y="0">.get call </tspan><tspan class="cls-47" x="83.49" y="0">t</tspan><tspan x="88.28" y="0">o API </tspan><tspan class="cls-48"><tspan x="-60.79" y="13.47">(</tspan><tspan class="cls-49" x="-57.6" y="13.47">U</tspan><tspan x="-50.41" y="13.47">ser ID f</tspan><tspan class="cls-50" x="-18.47" y="13.47">r</tspan><tspan x="-14.91" y="13.47">om J</tspan><tspan class="cls-51" x="7.14" y="13.47">W</tspan><tspan x="17.01" y="13.47">T </tspan><tspan class="cls-49" x="24.97" y="13.47">t</tspan><tspan x="28.62" y="13.47">oken and s</tspan><tspan class="cls-52" x="79.07" y="13.47">t</tspan><tspan x="82.72" y="13.47">o</tspan><tspan class="cls-50" x="88.88" y="13.47">r</tspan><tspan x="92.44" y="13.47">ed in local s</tspan><tspan class="cls-49" x="146.74" y="13.47">t</tspan><tspan x="150.38" y="13.47">o</tspan><tspan class="cls-53" x="156.55" y="13.47">r</tspan><tspan x="160.16" y="13.47">age)</tspan></tspan></text><text class="cls-54" transform="translate(425.68 736.8)"><tspan class="cls-49">U</tspan><tspan x="7.19" y="0">ser </tspan><tspan x="-0.52" y="13.47">D</tspan><tspan class="cls-55" x="6.96" y="13.47">a</tspan><tspan x="12.32" y="13.47">ta </tspan></text><text class="cls-54" transform="translate(1031.68 716.8)"><tspan class="cls-49">U</tspan><tspan x="7.19" y="0">ser </tspan><tspan x="-0.52" y="13.47">D</tspan><tspan class="cls-55" x="6.96" y="13.47">a</tspan><tspan x="12.32" y="13.47">ta </tspan></text><text class="cls-54" transform="translate(359.21 742.47)">P<tspan class="cls-56" x="5.97" y="0">R</tspan><tspan x="12.04" y="0">OPS</tspan></text><line class="cls-57" x1="392.22" y1="738.01" x2="420.99" y2="738.01"/><text class="cls-54" transform="translate(962.21 728.47)">P<tspan class="cls-56" x="5.97" y="0">R</tspan><tspan x="12.04" y="0">OPS</tspan></text><line class="cls-57" x1="995.22" y1="724.01" x2="1023.99" y2="724.01"/><line class="cls-57" x1="436.45" y1="599.03" x2="436.45" y2="643.93"/><line class="cls-57" x1="533.48" y1="558.55" x2="716.5" y2="423.5"/><circle class="cls-42" cx="755" cy="357" r="75.5"/><line class="cls-57" x1="992.5" y1="561.5" x2="798.88" y2="418.54"/><text class="cls-10" transform="translate(729.29 208.93)">DB</text><line class="cls-57" x1="1038.5" y1="591" x2="1038.5" y2="627"/><polygon class="cls-42" points="755.43 119.1 681.36 227.5 829.5 227.5 755.43 119.1"/><line class="cls-57" x1="755" y1="228" x2="755" y2="281"/><rect class="cls-42" x="1023.5" y="688.5" width="37" height="75"/><path class="cls-42" d="M1042,743.5" transform="translate(0 20)"/><line class="cls-42" x1="1042.5" y1="763.5" x2="1042.5" y2="921.5"/><rect class="cls-2" x="953.22" y="921.61" width="188.87" height="62.84"/><path d="M1141.59,902.11V964H953.72V902.11h187.87m1-1H952.72V965h189.87V901.11Z" transform="translate(0 20)"/><text class="cls-17" transform="translate(996.08 956.88) rotate(0.01) scale(0.99 1)">One<tspan class="cls-58" x="25.9" y="0"> </tspan><tspan class="cls-59" x="28.44" y="0">T</tspan><tspan x="35.64" y="0">ime</tspan><tspan class="cls-60" x="58.93" y="0"> </tspan><tspan class="cls-61" x="61.47" y="0">T</tspan><tspan x="67.9" y="0">able</tspan></text><polyline class="cls-42" points="672.59 956.88 754.5 956.88 754.5 432.5"/><line class="cls-42" x1="755.5" y1="957" x2="755.5" y2="1114"/></g></svg>